{
.appVersion = "3151";
.formatVersion = 3;
DisplayStrings = (
a
);
customParameters = (
{
name = vendorID;
value = COMM;
},
{
name = panose;
value = (
2,
13,
5,
4,
3,
5,
2,
12,
2,
3
);
},
{
name = unicodeRanges;
value = (
0,
1,
2
);
},
{
name = codePageRanges;
value = (
"1252",
"1250",
"1254",
"1257",
"bit 29"
);
},
{
name = fsType;
value = (
2
);
},
{
name = glyphOrder;
value = (
.notdef,
Eth,
eth,
Lslash,
lslash,
Scaron,
scaron,
Yacute,
yacute,
Thorn,
thorn,
Zcaron,
zcaron,
onehalf,
onequarter,
onesuperior,
threequarters,
threesuperior,
twosuperior,
brokenbar,
minus,
multiply,
space,
exclam,
quotedbl,
numbersign,
dollar,
percent,
ampersand,
quotesingle,
parenleft,
parenright,
asterisk,
plus,
comma,
hyphen,
period,
slash,
zero,
one,
two,
three,
four,
five,
six,
seven,
eight,
nine,
colon,
semicolon,
less,
equal,
greater,
question,
at,
A,
B,
C,
D,
E,
F,
G,
H,
I,
J,
K,
L,
M,
N,
O,
P,
Q,
R,
S,
T,
U,
V,
W,
X,
Y,
Z,
bracketleft,
backslash,
bracketright,
asciicircum,
underscore,
grave,
a,
b,
c,
d,
e,
f,
g,
h,
i,
j,
k,
l,
m,
n,
o,
p,
q,
r,
s,
t,
u,
v,
w,
x,
y,
z,
braceleft,
bar,
braceright,
asciitilde,
Adieresis,
Aring,
Ccedilla,
Eacute,
Ntilde,
Odieresis,
Udieresis,
aacute,
agrave,
acircumflex,
adieresis,
atilde,
aring,
ccedilla,
eacute,
egrave,
ecircumflex,
edieresis,
iacute,
igrave,
icircumflex,
idieresis,
ntilde,
oacute,
ograve,
ocircumflex,
odieresis,
otilde,
uacute,
ugrave,
ucircumflex,
udieresis,
dagger,
degree,
cent,
sterling,
section,
bullet,
paragraph,
germandbls,
registered,
copyright,
trademark,
acute,
dieresis,
notequal,
AE,
Oslash,
infinity,
plusminus,
lessequal,
greaterequal,
yen,
mu,
partialdiff,
summation,
product,
pi,
integral,
ordfeminine,
ordmasculine,
Omega,
ae,
oslash,
questiondown,
exclamdown,
logicalnot,
radical,
florin,
approxequal,
Delta,
guillemotleft,
guillemotright,
ellipsis,
uni00A0,
Agrave,
Atilde,
Otilde,
OE,
oe,
endash,
emdash,
quotedblleft,
quotedblright,
quoteleft,
quoteright,
divide,
lozenge,
ydieresis,
Ydieresis,
fraction,
Euro,

glyphs = (
{
glyphname = zero;
kernLeft = zero;
kernRight = zero;
lastChange = "2023-04-04 19:32:29 +0000";
layers = (
{
hints = (
{
horizontal = 1;
place = (-15, 72);
place = (-15, 72);
type = Stem;
},
{
horizontal = 1;
place = (630, 71);
place = (630, 71);
type = Stem;
},
{
place = (50, 86);
place = (50, 86);
type = Stem;
},
{
place = (505, 86);
place = (505, 86);
type = Stem;
}
);
layerId = m01;
shapes = (
{
closed = 1;
nodes = (
(144,701,o),
(50,444,o),
(50,247,cs),
(50,89,o),
(136,-15,o),
(281,-15,cs),
(503,-15,o),
(591,237,o),
(591,439,cs),
(591,593,o),
(510,701,o),
(364,701,cs)
);
},
{
closed = 1;
nodes = (
(473,630,o),
(505,532,o),
(505,438,cs),
(505,286,o),
(454,57,o),
(285,57,cs),
(173,57,o),
(136,151,o),
(136,247,cs),
(136,389,o),
(193,630,o),
(361,630,cs)
);
}
);
width = 610;
}
);
note = zero;
unicode = 48;
},
{
glyphname = one;
kernLeft = one;
kernRight = one;
lastChange = "2023-04-03 23:38:56 +0000";
layers = (
{
hints = (
{
horizontal = 1;
place = (0, 21);
target = up;
type = BottomGhost;
},
{
horizontal = 1;
place = (499, 190);
place = (499, 190);
type = Stem;
},
{
place = (59, 268);
place = (59, 268);
type = Stem;
}
);
layerId = m01;
shapes = (
{
closed = 1;
nodes = (
(235,594,o),
(154,557,o),
(70,555,c),
(59,499,l),
(108,499,o),
(158,499,o),
(207,499,c),
(111,0,l),
(194,0,l),
(327,689,l),
(263,689,l)
);
}
);
width = 331;
}
);
note = one;
unicode = 49;
},
{
glyphname = two;
kernLeft = two;
kernRight = two;
lastChange = "2023-04-03 23:41:05 +0000";
layers = (
{
hints = (
{
horizontal = 1;
place = (0, 79);
place = (0, 79);
type = Stem;
},
{
horizontal = 1;
place = (631, 69);
place = (631, 69);
type = Stem;
},
{
place = (448, 83);
place = (448, 83);
type = Stem;
}
);
layerId = m01;
shapes = (
{
closed = 1;
nodes = (
(146,450,l),
(167,569,o),
(220,631,o),
(322,631,cs),
(398,631,o),
(447,590,o),
(448,512,cs),
(449,418,o),
(384,374,o),
(282,323,cs),
(160,262,o),
(14,190,o),
(-18,0,c),
(448,0,l),
(463,79,l),
(91,79,l),
(120,166,o),
(228,221,o),
(305,258,cs),
(432,319,o),
(531,378,o),
(531,512,cs),
(531,635,o),
(440,700,o),
(325,700,cs),
(178,700,o),
(90,608,o),
(65,450,c)
);
}
);
width = 542;
}
);
note = two;
unicode = 50;
},
{
glyphname = three;
kernLeft = three;
kernRight = three;
lastChange = "2023-04-03 23:52:29 +0000";
layers = (
{
hints = (
{
horizontal = 1;
place = (-15, 69);
place = (-15, 69);
type = Stem;
},
{
horizontal = 1;
place = (333, 64);
place = (333, 64);
type = Stem;
},
{
horizontal = 1;
place = (636, 65);
place = (636, 65);
type = Stem;
},
{
place = (12, 84);
place = (12, 84);
type = Stem;
},
{
place = (433, 86);
place = (433, 86);
type = Stem;
},
{
place = (457, 83);
place = (457, 83);
type = Stem;
}
);
layerId = m01;
shapes = (
{
closed = 1;
nodes = (
(155,476,l),
(172,577,o),
(235,636,o),
(330,636,cs),
(406,636,o),
(457,596,o),
(457,526,cs),
(457,426,o),
(380,397,o),
(308,397,cs),
(249,397,l),
(237,333,l),
(284,333,ls),
(359,333,o),
(433,297,o),
(433,207,cs),
(433,112,o),
(366,54,o),
(267,54,cs),
(145,54,o),
(96,128,o),
(96,226,c),
(12,226,l),
(13,67,o),
(117,-15,o),
(263,-15,cs),
(407,-15,o),
(519,75,o),
(519,207,cs),
(519,288,o),
(477,338,o),
(414,360,c),
(414,363,l),
(494,389,o),
(540,454,o),
(540,527,cs),
(540,653,o),
(432,701,o),
(332,701,cs),
(196,701,o),
(96,616,o),
(72,476,c)
);
}
);
width = 552;
}
);
note = three;
unicode = 51;
},
{
glyphname = four;
kernLeft = four;
kernRight = four;
lastChange = "2023-04-04 01:07:52 +0000";
layers = (
{
hints = (
{
horizontal = 1;
place = (0, 21);
target = up;
type = BottomGhost;
},
{
horizontal = 1;
place = (168, 66);
place = (168, 66);
type = Stem;
},
{
horizontal = 1;
place = (692, -20);
target = down;
type = TopGhost;
},
{
place = (8, 522);
place = (8, 522);
type = Stem;
}
);
layerId = m01;
shapes = (
{
closed = 1;
nodes = (
(8,168,l),
(325,168,l),
(293,0,l),
(374,0,l),
(406,168,l),
(517,168,l),
(530,234,l),
(419,234,l),
(508,692,l),
(443,692,l),
(23,242,l)
);
},
{
closed = 1;
nodes = (
(400,552,l),
(338,234,l),
(105,234,l)
);
}
);
width = 557;
}
);
note = four;
unicode = 52;
},
{
glyphname = five;
kernLeft = five;
kernRight = five;
lastChange = "2023-04-04 01:36:04 +0000";
layers = (
{
hints = (
{
horizontal = 1;
place = (-15, 73);
place = (-15, 73);
type = Stem;
},
{
horizontal = 1;
place = (390, 72);
place = (390, 72);
type = Stem;
},
{
horizontal = 1;
place = (611, 74);
place = (611, 74);
type = Stem;
},
{
place = (421, 85);
place = (421, 85);
type = Stem;
},
{
horizontal = 1;
place = (317, 89);
place = (317, 89);
type = Stem;
}
);
layerId = m01;
shapes = (
{
closed = 1;
nodes = (
(166,685,l),
(57,317,l),
(137,317,l),
(168,355,o),
(211,390,o),
(284,390,cs),
(369,390,o),
(421,336,o),
(421,253,cs),
(421,135,o),
(352,58,o),
(248,58,cs),
(152,58,o),
(98,114,o),
(91,198,c),
(8,198,l),
(13,64,o),
(119,-15,o),
(246,-15,cs),
(399,-15,o),
(506,96,o),
(506,254,cs),
(506,385,o),
(415,462,o),
(302,462,cs),
(246,462,o),
(195,443,o),
(159,406,c),
(157,406,l),
(217,611,l),
(523,611,l),
(537,685,l)
);
}
);
width = 534;
}
);
note = five;
unicode = 53;
},
{
glyphname = six;
kernLeft = six;
kernRight = six;
lastChange = "2023-04-04 01:39:20 +0000";
layers = (
{
hints = (
{
horizontal = 1;
place = (-15, 67);
place = (-15, 67);
type = Stem;
},
{
horizontal = 1;
place = (381, 68);
place = (381, 68);
type = Stem;
},
{
horizontal = 1;
place = (631, 70);
place = (631, 70);
type = Stem;
},
{
place = (47, 79);
place = (47, 79);
type = Stem;
},
{
place = (477, 80);
place = (477, 80);
type = Stem;
},
{
place = (444, 78);
place = (444, 78);
type = Stem;
}
);
layerId = m01;
shapes = (
{
closed = 1;
nodes = (
(549,637,o),
(479,701,o),
(362,701,cs),
(141,701,o),
(47,431,o),
(47,245,cs),
(47,93,o),
(120,-15,o),
(272,-15,cs),
(416,-14,o),
(522,102,o),
(522,240,cs),
(522,369,o),
(433,449,o),
(319,449,cs),
(248,449,o),
(187,417,o),
(143,364,c),
(141,364,l),
(175,521,o),
(237,631,o),
(358,631,cs),
(429,631,o),
(469,592,o),
(477,511,c),
(557,511,l)
);
},
{
closed = 1;
nodes = (
(396,381,o),
(444,321,o),
(444,240,cs),
(444,126,o),
(374,52,o),
(272,52,cs),
(183,52,o),
(126,113,o),
(126,200,cs),
(126,312,o),
(206,381,o),
(305,381,cs)
);
}
);
width = 568;
}
);
note = six;
unicode = 54;
},
{
glyphname = seven;
kernLeft = seven;
kernRight = seven;
lastChange = "2023-04-04 01:43:24 +0000";
layers = (
{
hints = (
{
horizontal = 1;
place = (0, 21);
target = up;
type = BottomGhost;
},
{
horizontal = 1;
place = (612, 73);
place = (612, 73);
type = Stem;
},
{
place = (83, 474);
place = (83, 474);
type = Stem;
}
);
layerId = m01;
shapes = (
{
closed = 1;
nodes = (
(83,612,l),
(452,612,l),
(285,484,o),
(130,239,o),
(84,0,c),
(173,0,l),
(221,272,o),
(390,495,o),
(544,618,c),
(557,685,l),
(98,685,l)
);
}
);
width = 493;
}
);
note = seven;
unicode = 55;
},
{
glyphname = eight;
kernLeft = eight;
kernRight = eight;
lastChange = "2023-04-04 18:15:30 +0000";
layers = (
{
hints = (
{
horizontal = 1;
place = (-15, 69);
place = (-15, 69);
type = Stem;
},
{
horizontal = 1;
place = (343, 65);
place = (343, 65);
type = Stem;
},
{
horizontal = 1;
place = (633, 69);
place = (633, 69);
type = Stem;
},
{
place = (19, 86);
place = (19, 86);
type = Stem;
},
{
place = (447, 83);
place = (447, 83);
type = Stem;
},
{
place = (109, 82);
place = (109, 82);
type = Stem;
},
{
place = (470, 81);
place = (470, 81);
type = Stem;
}
);
layerId = m01;
shapes = (
{
closed = 1;
nodes = (
(221,702,o),
(109,625,o),
(109,503,cs),
(109,447,o),
(138,405,o),
(189,381,c),
(189,378,l),
(87,352,o),
(19,286,o),
(19,174,cs),
(19,36,o),
(160,-15,o),
(266,-15,cs),
(409,-15,o),
(530,67,o),
(530,217,cs),
(530,292,o),
(485,343,o),
(422,368,c),
(422,371,l),
(499,397,o),
(551,452,o),
(551,532,cs),
(551,657,o),
(435,702,o),
(343,702,cs)
);
},
{
closed = 1;
nodes = (
(377,343,o),
(447,305,o),
(447,215,cs),
(447,101,o),
(362,54,o),
(272,54,cs),
(183,54,o),
(105,92,o),
(105,181,cs),
(105,295,o),
(193,343,o),
(289,343,cs)
);
},
{
closed = 1;
nodes = (
(409,633,o),
(470,600,o),
(470,527,cs),
(470,436,o),
(389,408,o),
(322,408,cs),
(251,408,o),
(191,436,o),
(191,505,cs),
(191,589,o),
(259,633,o),
(337,633,cs)
);
}
);
width = 569;
}
);
note = eight;
unicode = 56;
},
{
glyphname = nine;
kernLeft = nine;
kernRight = nine;
lastChange = "2023-04-04 02:04:31 +0000";
layers = (
{
hints = (
{
horizontal = 1;
place = (-15, 70);
place = (-15, 70);
type = Stem;
},
{
horizontal = 1;
place = (237, 68);
place = (237, 68);
type = Stem;
},
{
horizontal = 1;
place = (634, 67);
place = (634, 67);
type = Stem;
},
{
place = (70, 78);
place = (70, 78);
type = Stem;
},
{
place = (471, 79);
place = (471, 79);
type = Stem;
}
);
layerId = m01;
shapes = (
{
closed = 1;
nodes = (
(345,237,o),
(411,270,o),
(458,324,c),
(427,185,o),
(381,55,o),
(239,55,cs),
(168,55,o),
(109,86,o),
(104,186,c),
(23,186,l),
(28,48,o),
(118,-15,o),
(235,-15,cs),
(460,-15,o),
(550,231,o),
(550,456,cs),
(550,601,o),
(472,701,o),
(322,701,cs),
(181,700,o),
(70,587,o),
(70,446,cs),
(70,317,o),
(160,237,o),
(274,237,cs)
);
},
{
closed = 1;
nodes = (
(197,305,o),
(148,365,o),
(148,446,cs),
(148,562,o),
(221,634,o),
(322,634,cs),
(411,634,o),
(471,573,o),
(471,486,cs),
(471,374,o),
(387,305,o),
(288,305,cs)
);
}
);
width = 572;
}
);
note = nine;
unicode = 57;
},
{
glyphname = A;
kernLeft = A;
kernRight = A;
lastChange = "2023-04-04 19:50:37 +0000";
layers = (
{
hints = (
{
horizontal = 1;
place = (0, 21);
target = up;
type = BottomGhost;
},
{
horizontal = 1;
place = (218, 72);
place = (218, 72);
type = Stem;
},
{
horizontal = 1;
place = (715, -20);
target = down;
type = TopGhost;
},
{
place = (-39, 617);
place = (-39, 617);
type = Stem;
},
{
horizontal = 1;
place = (632, 83);
place = (632, 83);
type = Stem;
}
);
layerId = m01;
shapes = (
{
closed = 1;
nodes = (
(-39,0,l),
(53,0,l),
(166,218,l),
(448,218,l),
(484,0,l),
(578,0,l),
(443,715,l),
(344,715,l)
);
},
{
closed = 1;
nodes = (
(436,290,l),
(204,290,l),
(381,632,l)
);
}
);
width = 638;
}
);
note = A;
unicode = 65;
},
{
glyphname = B;
lastChange = "2023-04-04 19:50:41 +0000";
layers = (
{
hints = (
{
horizontal = 1;
place = (0, 80);
place = (0, 80);
type = Stem;
},
{
horizontal = 1;
place = (334, 75);
place = (334, 75);
type = Stem;
},
{
horizontal = 1;
place = (638, 77);
place = (638, 77);
type = Stem;
},
{
place = (517, 89);
place = (517, 89);
type = Stem;
},
{
place = (498, 89);
place = (498, 89);
type = Stem;
}
);
layerId = m01;
shapes = (
{
closed = 1;
nodes = (
(16,0,l),
(326,0,ls),
(472,0,o),
(587,80,o),
(587,226,cs),
(587,310,o),
(536,354,o),
(473,374,c),
(555,398,o),
(606,460,o),
(606,546,cs),
(606,663,o),
(510,715,o),
(405,715,cs),
(154,715,l)
);
},
{
closed = 1;
nodes = (
(399,638,ls),
(476,638,o),
(517,603,o),
(517,540,cs),
(517,442,o),
(451,409,o),
(362,409,cs),
(183,409,l),
(227,638,l)
);
},
{
closed = 1;
nodes = (
(364,334,ls),
(450,334,o),
(498,298,o),
(498,225,cs),
(498,121,o),
(429,80,o),
(324,80,cs),
(119,80,l),
(168,334,l)
);
}
);
width = 622;
}
);
note = B;
unicode = 66;
},
{
glyphname = C;
kernLeft = C;
kernRight = C;
lastChange = "2023-04-04 02:17:30 +0000";
layers = (
{
hints = (
{
horizontal = 1;
place = (-14, 78);
place = (-14, 78);
type = Stem;
},
{
horizontal = 1;
place = (654, 77);
place = (654, 77);
type = Stem;
},
{
place = (50, 92);
place = (50, 92);
type = Stem;
}
);
layerId = m01;
shapes = (
{
closed = 1;
nodes = (
(672,648,o),
(576,731,o),
(427,731,cs),
(189,731,o),
(50,515,o),
(50,301,cs),
(50,115,o),
(152,-14,o),
(348,-14,cs),
(516,-14,o),
(631,101,o),
(661,262,c),
(573,262,l),
(550,158,o),
(479,64,o),
(351,64,cs),
(203,64,o),
(142,173,o),
(142,304,cs),
(142,484,o),
(239,654,o),
(418,654,cs),
(522,654,o),
(582,599,o),
(595,503,c),
(684,503,l)
);
}
);
width = 684;
}
);
note = C;
unicode = 67;
},
{
glyphname = D;
kernRight = Eth;
lastChange = "2023-04-04 19:50:44 +0000";
layers = (
{
hints = (
{
horizontal = 1;
place = (0, 78);
place = (0, 78);
type = Stem;
},
{
horizontal = 1;
place = (638, 77);
place = (638, 77);
type = Stem;
},
{
place = (570, 91);
place = (570, 91);
type = Stem;
}
);
layerId = m01;
shapes = (
{
closed = 1;
nodes = (
(16,0,l),
(273,0,ls),
(530,0,o),
(661,198,o),
(661,430,cs),
(661,603,o),
(571,715,o),
(378,715,cs),
(154,715,l)
);
},
{
closed = 1;
nodes = (
(373,638,ls),
(514,638,o),
(570,554,o),
(570,424,cs),
(570,231,o),
(475,78,o),
(271,78,cs),
(119,78,l),
(227,638,l)
);
}
);
width = 673;
}
);
note = D;
unicode = 68;
},
{
glyphname = E;
kernRight = E;
layers = (
{
hints = (
{
horizontal = 1;
place = (0, 82);
place = (0, 82);
type = Stem;
},
{
horizontal = 1;
place = (335, 75);
place = (335, 75);
type = Stem;
},
{
horizontal = 1;
place = (637, 78);
place = (637, 78);
type = Stem;
},
{
place = (16, 605);
place = (16, 605);
type = Stem;
}
);
layerId = m01;
shapes = (
{
closed = 1;
nodes = (
(16,0,l),
(505,0,l),
(521,82,l),
(120,82,l),
(168,335,l),
(516,335,l),
(531,410,l),
(183,410,l),
(227,637,l),
(606,637,l),
(621,715,l),
(154,715,l)
);
}
);
width = 592;
}
);
note = E;
unicode = 69;
},
{
glyphname = F;
kernRight = F;
layers = (
{
hints = (
{
horizontal = 1;
place = (0, 21);
target = up;
type = BottomGhost;
},
{
horizontal = 1;
place = (338, 75);
place = (338, 75);
type = Stem;
},
{
horizontal = 1;
place = (637, 78);
place = (637, 78);
type = Stem;
},
{
place = (16, 596);
place = (16, 596);
type = Stem;
}
);
layerId = m01;
shapes = (
{
closed = 1;
nodes = (
(16,0,l),
(104,0,l),
(169,338,l),
(489,338,l),
(504,413,l),
(184,413,l),
(227,637,l),
(597,637,l),
(612,715,l),
(154,715,l)
);
}
);
width = 552;
}
);
note = F;
unicode = 70;
},
{
glyphname = G;
kernLeft = C;
kernRight = G;
lastChange = "2023-04-04 02:26:38 +0000";
layers = (
{
hints = (
{
horizontal = 1;
place = (0, 21);
target = up;
type = BottomGhost;
},
{
horizontal = 1;
place = (301, 77);
place = (301, 77);
type = Stem;
},
{
horizontal = 1;
place = (653, 78);
place = (653, 78);
type = Stem;
},
{
place = (50, 92);
place = (50, 92);
type = Stem;
},
{
place = (554, 62);
place = (554, 62);
type = Stem;
},
{
horizontal = 1;
place = (-15, 76);
place = (-15, 76);
type = Stem;
}
);
layerId = m01;
shapes = (
{
closed = 1;
nodes = (
(684,656,o),
(574,731,o),
(432,731,cs),
(189,731,o),
(50,510,o),
(50,297,cs),
(50,93,o),
(173,-15,o),
(336,-15,cs),
(433,-15,o),
(500,26,o),
(554,94,c),
(554,0,l),
(616,0,l),
(689,378,l),
(389,378,l),
(374,301,l),
(585,301,l),
(582,285,ls),
(558,155,o),
(482,61,o),
(346,61,cs),
(214,61,o),
(142,158,o),
(142,299,cs),
(142,481,o),
(239,653,o),
(430,653,cs),
(532,653,o),
(597,592,o),
(605,500,c),
(694,500,l)
);
}
);
width = 722;
}
);
note = G;
unicode = 71;
},
{
glyphname = H;
layers = (
{
hints = (
{
horizontal = 1;
place = (0, 21);
target = up;
type = BottomGhost;
},
{
horizontal = 1;
place = (339, 72);
place = (339, 72);
type = Stem;
},
{
horizontal = 1;
place = (715, -20);
target = down;
type = TopGhost;
},
{
place = (16, 671);
place = (16, 671);
type = Stem;
}
);
layerId = m01;
shapes = (
{
closed = 1;
nodes = (
(16,0,l),
(104,0,l),
(169,339,l),
(525,339,l),
(460,0,l),
(549,0,l),
(687,715,l),
(598,715,l),
(539,411,l),
(183,411,l),
(242,715,l),
(154,715,l)
);
}
);
width = 665;
}
);
note = H;
unicode = 72;
},
{
glyphname = I;
layers = (
{
hints = (
{
horizontal = 1;
place = (0, 21);
target = up;
type = BottomGhost;
},
{
horizontal = 1;
place = (715, -20);
target = down;
type = TopGhost;
},
{
place = (18, 226);
place = (18, 226);
type = Stem;
}
);
layerId = m01;
shapes = (
{
closed = 1;
nodes = (
(18,0,l),
(106,0,l),
(244,715,l),
(156,715,l)
);
}
);
width = 224;
}
);
note = I;
unicode = 73;
},
{
glyphname = J;
kernLeft = J;
kernRight = J;
lastChange = "2023-04-04 02:31:11 +0000";
layers = (
{
hints = (
{
horizontal = 1;
place = (-14, 73);
place = (-14, 73);
type = Stem;
},
{
horizontal = 1;
place = (715, -20);
target = down;
type = TopGhost;
},
{
place = (2, 87);
place = (2, 87);
type = Stem;
}
);
layerId = m01;
shapes = (
{
closed = 1;
nodes = (
(322,178,ls),
(305,94,o),
(267,59,o),
(197,59,cs),
(83,59,o),
(78,131,o),
(97,227,cs),
(98,232,l),
(12,232,l),
(11,227,ls),
(-24,53,o),
(45,-14,o),
(192,-14,cs),
(319,-14,o),
(388,58,o),
(409,164,cs),
(515,715,l),
(426,715,l)
);
}
);
width = 484;
}
);
note = J;
unicode = 74;
},
{
glyphname = K;
kernRight = K;
lastChange = "2023-04-04 02:34:26 +0000";
layers = (
{
hints = (
{
horizontal = 1;
place = (0, 21);
target = up;
type = BottomGhost;
},
{
horizontal = 1;
place = (715, -20);
target = down;
type = TopGhost;
},
{
place = (16, 655);
place = (16, 655);
type = Stem;
}
);
layerId = m01;
shapes = (
{
closed = 1;
nodes = (
(16,0,l),
(104,0,l),
(152,248,l),
(284,367,l),
(477,0,l),
(576,0,l),
(351,427,l),
(671,715,l),
(559,715,l),
(173,362,l),
(242,715,l),
(154,715,l)
);
}
);
width = 624;
}
);
note = K;
unicode = 75;
},
{
glyphname = L;
kernRight = L;
layers = (
{
hints = (
{
horizontal = 1;
place = (0, 82);
place = (0, 82);
type = Stem;
},
{
horizontal = 1;
place = (715, -20);
target = down;
type = TopGhost;
},
{
place = (16, 463);
place = (16, 463);
type = Stem;
}
);
layerId = m01;
shapes = (
{
closed = 1;
nodes = (
(16,0,l),
(463,0,l),
(479,82,l),
(120,82,l),
(242,715,l),
(154,715,l)
);
}
);
width = 539;
}
);
note = L;
unicode = 76;
},
{
glyphname = M;
lastChange = "2023-04-04 02:44:59 +0000";
layers = (
{
hints = (
{
horizontal = 1;
place = (0, 21);
target = up;
type = BottomGhost;
},
{
horizontal = 1;
place = (715, -20);
target = down;
type = TopGhost;
},
{
place = (16, 809);
place = (16, 809);
type = Stem;
},
{
horizontal = 1;
place = (588, 127);
place = (588, 127);
type = Stem;
}
);
layerId = m01;
shapes = (
{
closed = 1;
nodes = (
(16,0,l),
(96,0,l),
(210,588,l),
(212,588,l),
(319,0,l),
(387,0,l),
(714,588,l),
(716,588,l),
(602,0,l),
(687,0,l),
(825,715,l),
(707,715,l),
(376,119,l),
(374,119,l),
(264,715,l),
(154,715,l)
);
}
);
width = 803;
}
);
note = M;
unicode = 77;
},
{
glyphname = N;
lastChange = "2023-04-04 02:46:35 +0000";
layers = (
{
hints = (
{
horizontal = 1;
place = (0, 21);
target = up;
type = BottomGhost;
},
{
horizontal = 1;
place = (715, -20);
target = down;
type = TopGhost;
},
{
place = (16, 678);
place = (16, 678);
type = Stem;
}
);
layerId = m01;
shapes = (
{
closed = 1;
nodes = (
(16,0,l),
(99,0,l),
(213,589,l),
(215,589,l),
(465,0,l),
(556,0,l),
(694,715,l),
(611,715,l),
(497,124,l),
(495,124,l),
(247,715,l),
(154,715,l)
);
}
);
width = 672;
}
);
note = N;
unicode = 78;
},
{
glyphname = O;
kernLeft = C;
kernRight = O;
lastChange = "2023-04-04 19:50:48 +0000";
layers = (
{
hints = (
{
horizontal = 1;
place = (-15, 78);
place = (-15, 78);
type = Stem;
},
{
horizontal = 1;
place = (654, 77);
place = (654, 77);
type = Stem;
},
{
place = (50, 92);
place = (50, 92);
type = Stem;
},
{
place = (654, 91);
place = (654, 91);
type = Stem;
}
);
layerId = m01;
shapes = (
{
closed = 1;
nodes = (
(199,731,o),
(50,539,o),
(50,312,cs),
(50,103,o),
(191,-15,o),
(372,-15,cs),
(605,-15,o),
(745,172,o),
(745,402,cs),
(745,612,o),
(607,731,o),
(426,731,cs)
);
},
{
closed = 1;
nodes = (
(567,654,o),
(654,552,o),
(654,401,cs),
(654,213,o),
(558,63,o),
(374,63,cs),
(231,63,o),
(142,156,o),
(142,312,cs),
(142,499,o),
(241,654,o),
(422,654,cs)
);
}
);
width = 758;
}
);
note = O;
unicode = 79;
},
{
glyphname = P;
kernRight = P;
lastChange = "2023-04-04 19:50:51 +0000";
layers = (
{
hints = (
{
horizontal = 1;
place = (0, 21);
target = up;
type = BottomGhost;
},
{
horizontal = 1;
place = (300, 73);
place = (300, 73);
type = Stem;
},
{
horizontal = 1;
place = (637, 78);
place = (637, 78);
type = Stem;
},
{
place = (524, 88);
place = (524, 88);
type = Stem;
}
);
layerId = m01;
shapes = (
{
closed = 1;
nodes = (
(16,0,l),
(104,0,l),
(162,300,l),
(362,300,ls),
(518,300,o),
(612,390,o),
(612,531,cs),
(612,652,o),
(524,715,o),
(403,715,cs),
(154,715,l)
);
},
{
closed = 1;
nodes = (
(393,637,ls),
(474,637,o),
(524,597,o),
(524,527,cs),
(524,417,o),
(458,373,o),
(360,373,cs),
(176,373,l),
(227,637,l)
);
}
);
width = 582;
}
);
note = P;
unicode = 80;
},
{
glyphname = Q;
kernLeft = C;
kernRight = Q;
lastChange = "2023-04-04 19:50:53 +0000";
layers = (
{
hints = (
{
horizontal = 1;
place = (-15, 78);
place = (-15, 78);
type = Stem;
},
{
horizontal = 1;
place = (654, 77);
place = (654, 77);
type = Stem;
},
{
place = (50, 92);
place = (50, 92);
type = Stem;
},
{
place = (654, 91);
place = (654, 91);
type = Stem;
},
{
horizontal = 1;
place = (-1, 21);
target = up;
type = BottomGhost;
}
);
layerId = m01;
shapes = (
{
closed = 1;
nodes = (
(199,731,o),
(50,539,o),
(50,312,cs),
(50,103,o),
(191,-15,o),
(372,-15,cs),
(434,-15,o),
(490,-1,o),
(538,23,c),
(630,-60,l),
(683,-1,l),
(606,68,l),
(695,145,o),
(745,267,o),
(745,402,cs),
(745,612,o),
(607,731,o),
(426,731,cs)
);
},
{
closed = 1;
nodes = (
(567,654,o),
(654,552,o),
(654,401,cs),
(654,285,o),
(617,183,o),
(546,122,c),
(459,201,l),
(406,142,l),
(474,80,l),
(444,69,o),
(411,63,o),
(374,63,cs),
(231,63,o),
(142,156,o),
(142,312,cs),
(142,499,o),
(241,654,o),
(422,654,cs)
);
}
);
width = 758;
}
);
note = Q;
unicode = 81;
},
{
glyphname = R;
kernRight = R;
lastChange = "2023-04-04 19:50:56 +0000";
layers = (
{
hints = (
{
horizontal = 1;
place = (0, 21);
target = up;
type = BottomGhost;
},
{
horizontal = 1;
place = (303, 72);
place = (303, 72);
type = Stem;
},
{
horizontal = 1;
place = (638, 77);
place = (638, 77);
type = Stem;
},
{
place = (543, 92);
place = (543, 92);
type = Stem;
},
{
place = (476, 108);
place = (476, 108);
type = Stem;
}
);
layerId = m01;
shapes = (
{
closed = 1;
nodes = (
(16,0,l),
(104,0,l),
(162,303,l),
(363,303,ls),
(458,303,o),
(486,265,o),
(479,160,cs),
(477,138,o),
(477,118,o),
(476,102,cs),
(475,35,o),
(484,14,o),
(494,0,c),
(584,0,l),
(584,4,l),
(574,11,o),
(562,32,o),
(563,104,cs),
(563,119,o),
(564,137,o),
(565,157,cs),
(572,263,o),
(559,307,o),
(496,336,c),
(496,339,l),
(576,366,o),
(635,430,o),
(635,528,cs),
(635,652,o),
(549,715,o),
(425,715,cs),
(154,715,l)
);
},
{
closed = 1;
nodes = (
(412,638,ls),
(497,638,o),
(543,600,o),
(543,526,cs),
(543,428,o),
(478,375,o),
(377,375,cs),
(176,375,l),
(227,638,l)
);
}
);
width = 647;
}
);
note = R;
unicode = 82;
},
{
glyphname = S;
kernLeft = Scaron;
kernRight = Scaron;
lastChange = "2023-04-04 03:06:20 +0000";
layers = (
{
hints = (
{
horizontal = 1;
place = (-14, 73);
place = (-14, 73);
type = Stem;
},
{
horizontal = 1;
place = (657, 72);
place = (657, 72);
type = Stem;
},
{
place = (10, 85);
place = (10, 85);
type = Stem;
},
{
place = (470, 87);
place = (470, 87);
type = Stem;
},
{
place = (94, 83);
place = (94, 83);
type = Stem;
}
);
layerId = m01;
shapes = (
{
closed = 1;
nodes = (
(580,667,o),
(474,729,o),
(329,729,cs),
(195,729,o),
(94,654,o),
(94,534,cs),
(94,433,o),
(170,388,o),
(291,344,cs),
(408,301,o),
(470,277,o),
(470,203,cs),
(470,110,o),
(400,59,o),
(291,59,cs),
(170,59,o),
(95,112,o),
(95,242,c),
(10,242,l),
(5,52,o),
(143,-14,o),
(289,-14,cs),
(457,-14,o),
(557,79,o),
(557,213,cs),
(557,335,o),
(462,373,o),
(328,422,cs),
(235,456,o),
(177,482,o),
(177,542,cs),
(177,630,o),
(249,657,o),
(329,657,cs),
(437,657,o),
(499,612,o),
(504,506,c),
(588,506,l)
);
}
);
width = 602;
}
);
note = S;
unicode = 83;
},
{
glyphname = T;
kernLeft = T;
kernRight = T;
layers = (
{
hints = (
{
horizontal = 1;
place = (0, 21);
target = up;
type = BottomGhost;
},
{
horizontal = 1;
place = (637, 78);
place = (637, 78);
type = Stem;
},
{
place = (90, 558);
place = (90, 558);
type = Stem;
}
);
layerId = m01;
shapes = (
{
closed = 1;
nodes = (
(90,637,l),
(317,637,l),
(194,0,l),
(282,0,l),
(405,637,l),
(633,637,l),
(648,715,l),
(105,715,l)
);
}
);
width = 576;
}
);
note = T;
unicode = 84;
},
{
glyphname = U;
kernLeft = U;
kernRight = U;
lastChange = "2023-04-04 03:09:18 +0000";
layers = (
{
hints = (
{
horizontal = 1;
place = (-11, 76);
place = (-11, 76);
type = Stem;
},
{
horizontal = 1;
place = (715, -20);
target = down;
type = TopGhost;
},
{
place = (47, 89);
place = (47, 89);
type = Stem;
}
);
layerId = m01;
shapes = (
{
closed = 1;
nodes = (
(54,261,ls),
(17,70,o),
(128,-11,o),
(298,-11,cs),
(440,-11,o),
(547,55,o),
(577,210,cs),
(675,715,l),
(587,715,l),
(492,225,ls),
(470,114,o),
(410,65,o),
(302,65,cs),
(165,65,o),
(117,131,o),
(143,261,cs),
(231,715,l),
(142,715,l)
);
}
);
width = 641;
}
);
note = U;
unicode = 85;
},
{
glyphname = V;
kernLeft = V;
kernRight = V;
lastChange = "2023-04-04 03:09:21 +0000";
layers = (
{
hints = (
{
horizontal = 1;
place = (0, 21);
target = up;
type = BottomGhost;
},
{
horizontal = 1;
place = (715, -20);
target = down;
type = TopGhost;
},
{
place = (90, 589);
place = (90, 589);
type = Stem;
},
{
horizontal = 1;
place = (0, 87);
place = (0, 87);
type = Stem;
}
);
layerId = m01;
shapes = (
{
closed = 1;
nodes = (
(210,0,l),
(307,0,l),
(679,715,l),
(585,715,l),
(275,87,l),
(273,87,l),
(181,715,l),
(90,715,l)
);
}
);
width = 597;
}
);
note = V;
unicode = 86;
},
{
glyphname = W;
kernLeft = W;
kernRight = W;
lastChange = "2023-04-04 03:18:12 +0000";
layers = (
{
hints = (
{
horizontal = 1;
place = (0, 21);
target = up;
type = BottomGhost;
},
{
horizontal = 1;
place = (715, -20);
target = down;
type = TopGhost;
},
{
place = (94, 867);
place = (94, 867);
type = Stem;
},
{
horizontal = 1;
place = (615, 100);
place = (615, 100);
type = Stem;
},
{
horizontal = 1;
place = (0, 129);
place = (0, 129);
type = Stem;
}
);
layerId = m01;
shapes = (
{
closed = 1;
nodes = (
(151,0,l),
(239,0,l),
(508,615,l),
(510,615,l),
(560,0,l),
(645,0,l),
(961,715,l),
(871,715,l),
(626,129,l),
(624,129,l),
(573,715,l),
(477,715,l),
(221,129,l),
(219,129,l),
(184,715,l),
(94,715,l)
);
}
);
width = 886;
}
);
note = W;
unicode = 87;
},
{
glyphname = X;
kernLeft = X;
kernRight = X;
lastChange = "2023-04-04 04:43:26 +0000";
layers = (
{
hints = (
{
horizontal = 1;
place = (0, 21);
target = up;
type = BottomGhost;
},
{
horizontal = 1;
place = (715, -20);
target = down;
type = TopGhost;
},
{
place = (-38, 673);
place = (-38, 673);
type = Stem;
}
);
layerId = m01;
shapes = (
{
closed = 1;
nodes = (
(257,371,l),
(-38,0,l),
(61,0,l),
(294,302,l),
(296,302,l),
(431,0,l),
(529,0,l),
(355,360,l),
(635,715,l),
(538,715,l),
(320,431,l),
(318,431,l),
(190,715,l),
(91,715,l)
);
}
);
width = 576;
}
);
note = X;
unicode = 88;
},
{
glyphname = Y;
kernLeft = Yacute;
kernRight = Yacute;
lastChange = "2023-04-04 04:45:53 +0000";
layers = (
{
hints = (
{
horizontal = 1;
place = (0, 21);
target = up;
type = BottomGhost;
},
{
horizontal = 1;
place = (715, -20);
target = down;
type = TopGhost;
},
{
place = (81, 587);
place = (81, 587);
type = Stem;
}
);
layerId = m01;
shapes = (
{
closed = 1;
nodes = (
(257,303,l),
(199,0,l),
(287,0,l),
(344,296,l),
(668,715,l),
(569,715,l),
(316,376,l),
(314,376,l),
(176,715,l),
(81,715,l)
);
}
);
width = 580;
}
);
note = Y;
unicode = 89;
},
{
glyphname = Z;
kernLeft = Zcaron;
kernRight = Zcaron;
lastChange = "2023-04-04 04:54:09 +0000";
layers = (
{
hints = (
{
horizontal = 1;
place = (0, 79);
place = (0, 79);
type = Stem;
},
{
horizontal = 1;
place = (641, 74);
place = (641, 74);
type = Stem;
},
{
place = (-20, 653);
place = (-20, 653);
type = Stem;
}
);
layerId = m01;
shapes = (
{
closed = 1;
nodes = (
(123,641,l),
(505,641,l),
(505,638,l),
(-4,84,l),
(-20,0,l),
(517,0,l),
(532,79,l),
(103,79,l),
(103,82,l),
(620,647,l),
(633,715,l),
(137,715,l)
);
}
);
width = 592;
}
);
note = Z;
unicode = 90;
},
{
glyphname = a;
kernLeft = a;
kernRight = a;
lastChange = "2023-04-04 20:21:25 +0000";
layers = (
{
hints = (
{
horizontal = 1;
place = (-5, 21);
target = up;
type = BottomGhost;
},
{
horizontal = 1;
place = (465, 63);
place = (465, 63);
type = Stem;
},
{
place = (4, 81);
place = (4, 81);
type = Stem;
},
{
place = (329, 74);
place = (329, 74);
type = Stem;
},
{
horizontal = 1;
place = (-10, 62);
place = (-10, 62);
type = Stem;
},
{
place = (384, 73);
place = (384, 73);
type = Stem;
}
);
layerId = m01;
shapes = (
{
closed = 1;
nodes = (
(132,361,l),
(146,437,o),
(194,466,o),
(278,465,cs),
(334,464,o),
(384,449,o),
(384,385,cs),
(384,318,o),
(350,309,o),
(208,301,cs),
(105,295,o),
(4,268,o),
(4,136,cs),
(4,58,o),
(62,-10,o),
(165,-10,cs),
(238,-10,o),
(294,22,o),
(328,66,c),
(329,66,l),
(329,61,o),
(329,56,o),
(330,52,cs),
(335,20,o),
(353,-5,o),
(401,-5,cs),
(420,-5,o),
(432,-1,o),
(442,2,c),
(454,60,l),
(451,60,l),
(444,59,o),
(438,58,o),
(433,58,cs),
(402,58,o),
(400,81,o),
(406,113,cs),
(453,352,ls),
(478,481,o),
(384,528,o),
(284,528,cs),
(150,528,o),
(69,464,o),
(51,361,c)
);
},
{
closed = 1;
nodes = (
(350,197,ls),
(335,121,o),
(282,52,o),
(182,52,cs),
(120,52,o),
(85,88,o),
(85,142,cs),
(85,231,o),
(165,237,o),
(205,240,cs),
(291,247,o),
(332,250,o),
(364,268,c)
);
}
);
width = 497;
}
);
note = a;
unicode = 97;
},
{
glyphname = b;
kernLeft = b;
kernRight = thorn;
lastChange = "2023-04-04 19:51:02 +0000";
layers = (
{
hints = (
{
horizontal = 1;
place = (-15, 67);
place = (-15, 67);
type = Stem;
},
{
horizontal = 1;
place = (461, 68);
place = (461, 68);
type = Stem;
},
{
horizontal = 1;
place = (715, -20);
target = down;
type = TopGhost;
},
{
place = (440, 82);
place = (440, 82);
type = Stem;
},
{
horizontal = 1;
place = (0, 21);
target = up;
type = BottomGhost;
}
);
layerId = m01;
shapes = (
{
closed = 1;
nodes = (
(4,0,l),
(84,0,l),
(98,76,l),
(100,76,l),
(131,18,o),
(185,-15,o),
(261,-15,cs),
(437,-15,o),
(522,159,o),
(522,315,cs),
(522,443,o),
(453,529,o),
(340,529,cs),
(271,529,o),
(213,496,o),
(173,446,c),
(171,446,l),
(222,715,l),
(142,715,l)
);
},
{
closed = 1;
nodes = (
(410,461,o),
(440,390,o),
(440,310,cs),
(440,195,o),
(386,52,o),
(258,52,cs),
(166,52,o),
(124,120,o),
(125,208,cs),
(126,331,o),
(194,461,o),
(319,461,cs)
);
}
);
width = 547;
}
);
note = b;
unicode = 98;
},
{
glyphname = c;
kernLeft = c;
kernRight = c;
lastChange = "2023-04-04 05:10:41 +0000";
layers = (
{
hints = (
{
horizontal = 1;
place = (-14, 67);
place = (-14, 67);
type = Stem;
},
{
horizontal = 1;
place = (464, 66);
place = (464, 66);
type = Stem;
},
{
place = (23, 81);
place = (23, 81);
type = Stem;
}
);
layerId = m01;
shapes = (
{
closed = 1;
nodes = (
(482,465,o),
(415,530,o),
(299,530,cs),
(131,530,o),
(23,369,o),
(23,208,cs),
(23,62,o),
(111,-14,o),
(239,-14,cs),
(350,-14,o),
(439,57,o),
(468,182,c),
(391,182,l),
(370,100,o),
(313,53,o),
(240,53,cs),
(141,53,o),
(104,121,o),
(104,206,cs),
(104,332,o),
(170,464,o),
(295,464,cs),
(370,464,o),
(404,418,o),
(411,350,c),
(492,350,l)
);
}
);
width = 503;
}
);
note = c;
unicode = 99;
},
{
glyphname = d;
kernLeft = d;
lastChange = "2023-04-04 19:51:04 +0000";
layers = (
{
hints = (
{
horizontal = 1;
place = (-15, 67);
place = (-15, 67);
type = Stem;
},
{
horizontal = 1;
place = (461, 68);
place = (461, 68);
type = Stem;
},
{
horizontal = 1;
place = (715, -20);
target = down;
type = TopGhost;
},
{
place = (23, 81);
place = (23, 81);
type = Stem;
},
{
horizontal = 1;
place = (0, 52);
place = (0, 52);
type = Stem;
}
);
layerId = m01;
shapes = (
{
closed = 1;
nodes = (
(447,438,l),
(445,438,l),
(413,498,o),
(363,529,o),
(295,529,cs),
(117,529,o),
(24,352,o),
(23,201,cs),
(22,63,o),
(102,-15,o),
(219,-15,cs),
(282,-15,o),
(332,12,o),
(371,56,c),
(373,56,l),
(362,0,l),
(442,0,l),
(580,715,l),
(500,715,l)
);
},
{
closed = 1;
nodes = (
(376,461,o),
(421,398,o),
(421,319,cs),
(421,191,o),
(362,52,o),
(230,52,cs),
(137,52,o),
(104,124,o),
(104,205,cs),
(104,314,o),
(165,461,o),
(292,461,cs)
);
}
);
width = 546;
}
);
note = d;
unicode = 100;
},
{
glyphname = e;
kernLeft = c;
kernRight = e;
lastChange = "2023-04-04 19:51:06 +0000";
layers = (
{
hints = (
{
horizontal = 1;
place = (-14, 67);
place = (-14, 67);
type = Stem;
},
{
horizontal = 1;
place = (239, 61);
place = (239, 61);
type = Stem;
},
{
horizontal = 1;
place = (467, 63);
place = (467, 63);
type = Stem;
},
{
place = (23, 81);
place = (23, 81);
type = Stem;
},
{
place = (414, 82);
place = (414, 82);
type = Stem;
}
);
layerId = m01;
shapes = (
{
closed = 1;
nodes = (
(516,408,o),
(455,530,o),
(292,530,cs),
(140,530,o),
(23,386,o),
(23,211,cs),
(23,70,o),
(119,-14,o),
(239,-14,cs),
(346,-14,o),
(431,44,o),
(471,160,c),
(393,160,l),
(370,92,o),
(314,53,o),
(247,53,cs),
(133,53,o),
(96,146,o),
(105,239,c),
(490,239,l)
);
},
{
closed = 1;
nodes = (
(113,300,l),
(136,398,o),
(198,467,o),
(289,467,cs),
(384,467,o),
(424,396,o),
(414,300,c)
);
}
);
width = 515;
}
);
note = e;
unicode = 101;
},
{
glyphname = f;
kernLeft = f;
kernRight = f;
layers = (
{
hints = (
{
horizontal = 1;
place = (0, 21);
target = up;
type = BottomGhost;
},
{
horizontal = 1;
place = (452, 65);
place = (452, 65);
type = Stem;
},
{
horizontal = 1;
place = (652, 69);
place = (652, 69);
type = Stem;
},
{
place = (42, 309);
place = (42, 309);
type = Stem;
}
);
layerId = m01;
shapes = (
{
closed = 1;
nodes = (
(59,452,l),
(129,452,l),
(42,0,l),
(121,0,l),
(208,452,l),
(303,452,l),
(316,517,l),
(221,517,l),
(236,596,ls),
(243,632,o),
(255,652,o),
(307,652,cs),
(313,652,o),
(324,652,o),
(338,651,c),
(351,719,l),
(340,720,o),
(320,721,o),
(307,721,cs),
(219,721,o),
(175,687,o),
(158,600,cs),
(142,517,l),
(72,517,l)
);
}
);
width = 289;
}
);
note = f;
unicode = 102;
},
{
glyphname = g;
kernLeft = g;
kernRight = g;
lastChange = "2023-04-04 19:51:09 +0000";
layers = (
{
hints = (
{
horizontal = 1;
place = (-172, 63);
place = (-172, 63);
type = Stem;
},
{
horizontal = 1;
place = (18, 67);
place = (18, 67);
type = Stem;
},
{
horizontal = 1;
place = (461, 68);
place = (461, 68);
type = Stem;
},
{
place = (24, 80);
place = (24, 80);
type = Stem;
},
{
horizontal = 1;
place = (517, -20);
target = down;
type = TopGhost;
}
);
layerId = m01;
shapes = (
{
closed = 1;
nodes = (
(433,442,l),
(432,442,l),
(402,498,o),
(352,529,o),
(284,529,cs),
(117,529,o),
(24,380,o),
(24,224,cs),
(24,97,o),
(103,18,o),
(215,18,cs),
(279,18,o),
(325,45,o),
(364,88,c),
(365,88,l),
(349,7,ls),
(335,-65,o),
(285,-109,o),
(201,-109,cs),
(141,-109,o),
(90,-91,o),
(85,-29,c),
(6,-29,l),
(9,-134,o),
(102,-172,o),
(202,-172,cs),
(323,-172,o),
(407,-105,o),
(427,0,cs),
(527,517,l),
(448,517,l)
);
},
{
closed = 1;
nodes = (
(369,461,o),
(412,408,o),
(412,320,cs),
(412,209,o),
(355,84,o),
(230,85,cs),
(140,85,o),
(104,147,o),
(104,229,cs),
(104,343,o),
(159,461,o),
(280,461,cs)
);
}
);
width = 531;
}
);
note = g;
unicode = 103;
},
{
glyphname = h;
kernLeft = b;
kernRight = h;
lastChange = "2023-04-04 05:35:51 +0000";
layers = (
{
hints = (
{
horizontal = 1;
place = (0, 21);
target = up;
type = BottomGhost;
},
{
horizontal = 1;
place = (462, 67);
place = (462, 67);
type = Stem;
},
{
horizontal = 1;
place = (715, -20);
target = down;
type = TopGhost;
},
{
place = (411, 80);
place = (411, 80);
type = Stem;
}
);
layerId = m01;
shapes = (
{
closed = 1;
nodes = (
(4,0,l),
(84,0,l),
(140,290,ls),
(158,382,o),
(245,462,o),
(340,462,cs),
(402,462,o),
(420,429,o),
(408,365,cs),
(337,0,l),
(416,0,l),
(487,365,ls),
(506,466,o),
(463,529,o),
(361,529,cs),
(284,529,o),
(213,492,o),
(170,436,c),
(168,436,l),
(222,715,l),
(142,715,l)
);
}
);
width = 516;
}
);
note = h;
unicode = 104;
},
{
glyphname = i;
kernLeft = b;
layers = (
{
hints = (
{
horizontal = 1;
place = (0, 21);
target = up;
type = BottomGhost;
},
{
horizontal = 1;
place = (517, -20);
target = down;
type = TopGhost;
},
{
horizontal = 1;
place = (615, 100);
place = (615, 100);
type = Stem;
},
{
place = (4, 218);
place = (4, 218);
type = Stem;
}
);
layerId = m01;
shapes = (
{
closed = 1;
nodes = (
(4,0,l),
(84,0,l),
(184,517,l),
(104,517,l)
);
},
{
closed = 1;
nodes = (
(123,615,l),
(203,615,l),
(222,715,l),
(142,715,l)
);
}
);
width = 188;
}
);
note = i;
unicode = 105;
},
{
glyphname = j;
kernLeft = j;
kernRight = j;
lastChange = "2023-04-04 05:41:18 +0000";
layers = (
{
hints = (
{
horizontal = 1;
place = (-147, 66);
place = (-147, 66);
type = Stem;
},
{
horizontal = 1;
place = (517, -20);
target = down;
type = TopGhost;
},
{
horizontal = 1;
place = (615, 100);
place = (615, 100);
type = Stem;
},
{
place = (-104, 326);
place = (-104, 326);
type = Stem;
}
);
layerId = m01;
shapes = (
{
closed = 1;
nodes = (
(-2,-30,ls),
(-10,-71,o),
(-30,-81,o),
(-59,-81,cs),
(-72,-81,o),
(-80,-80,o),
(-92,-77,c),
(-104,-141,l),
(-95,-143,o),
(-81,-147,o),
(-52,-147,cs),
(1,-147,o),
(58,-129,o),
(75,-43,cs),
(184,517,l),
(104,517,l)
);
},
{
closed = 1;
nodes = (
(123,615,l),
(203,615,l),
(222,715,l),
(142,715,l)
);
}
);
width = 188;
}
);
note = j;
unicode = 106;
},
{
glyphname = k;
kernLeft = b;
kernRight = k;
lastChange = "2023-04-04 05:44:20 +0000";
layers = (
{
hints = (
{
horizontal = 1;
place = (0, 21);
target = up;
type = BottomGhost;
},
{
horizontal = 1;
place = (517, -20);
target = down;
type = TopGhost;
},
{
horizontal = 1;
place = (715, -20);
target = down;
type = TopGhost;
},
{
place = (4, 485);
place = (4, 485);
type = Stem;
}
);
layerId = m01;
shapes = (
{
closed = 1;
nodes = (
(4,0,l),
(84,0,l),
(121,191,l),
(213,273,l),
(329,0,l),
(415,0,l),
(274,326,l),
(489,517,l),
(384,517,l),
(139,286,l),
(222,715,l),
(142,715,l)
);
}
);
width = 461;
}
);
note = k;
unicode = 107;
},
{
glyphname = l;
kernLeft = b;
layers = (
{
hints = (
{
horizontal = 1;
place = (0, 21);
target = up;
type = BottomGhost;
},
{
horizontal = 1;
place = (715, -20);
target = down;
type = TopGhost;
},
{
place = (7, 218);
place = (7, 218);
type = Stem;
}
);
layerId = m01;
shapes = (
{
closed = 1;
nodes = (
(7,0,l),
(87,0,l),
(225,715,l),
(145,715,l)
);
}
);
width = 194;
}
);
note = l;
unicode = 108;
},
{
glyphname = m;
kernLeft = m;
kernRight = h;
layers = (
{
hints = (
{
horizontal = 1;
place = (0, 21);
target = up;
type = BottomGhost;
},
{
horizontal = 1;
place = (462, 67);
place = (462, 67);
type = Stem;
},
{
place = (667, 80);
place = (667, 80);
type = Stem;
},
{
horizontal = 1;
place = (517, -20);
target = down;
type = TopGhost;
}
);
layerId = m01;
shapes = (
{
closed = 1;
nodes = (
(4,0,l),
(84,0,l),
(143,304,ls),
(159,388,o),
(238,462,o),
(310,462,cs),
(361,462,o),
(381,430,o),
(370,374,cs),
(298,0,l),
(378,0,l),
(437,304,ls),
(454,394,o),
(528,462,o),
(601,462,cs),
(650,462,o),
(677,437,o),
(664,369,cs),
(592,0,l),
(671,0,l),
(742,367,ls),
(765,485,o),
(704,529,o),
(627,529,cs),
(557,529,o),
(499,496,o),
(448,435,c),
(446,435,l),
(435,499,o),
(394,529,o),
(339,529,cs),
(264,529,o),
(211,486,o),
(171,438,c),
(169,438,l),
(184,517,l),
(104,517,l)
);
}
);
width = 771;
}
);
note = m;
unicode = 109;
},
{
glyphname = n;
kernLeft = m;
kernRight = h;
lastChange = "2023-04-04 05:50:24 +0000";
layers = (
{
hints = (
{
horizontal = 1;
place = (0, 21);
target = up;
type = BottomGhost;
},
{
horizontal = 1;
place = (517, -20);
target = down;
type = TopGhost;
},
{
place = (411, 80);
place = (411, 80);
type = Stem;
},
{
horizontal = 1;
place = (462, 67);
place = (462, 67);
type = Stem;
}
);
layerId = m01;
shapes = (
{
closed = 1;
nodes = (
(4,0,l),
(84,0,l),
(140,290,ls),
(158,382,o),
(245,462,o),
(340,462,cs),
(402,462,o),
(420,429,o),
(408,365,cs),
(337,0,l),
(416,0,l),
(487,365,ls),
(506,466,o),
(463,529,o),
(361,529,cs),
(284,529,o),
(214,493,o),
(171,437,c),
(169,437,l),
(184,517,l),
(104,517,l)
);
}
);
width = 516;
}
);
note = n;
unicode = 110;
},
{
glyphname = o;
kernLeft = c;
kernRight = o;
lastChange = "2023-04-04 19:51:12 +0000";
layers = (
{
hints = (
{
horizontal = 1;
place = (-14, 67);
place = (-14, 67);
type = Stem;
},
{
horizontal = 1;
place = (464, 66);
place = (464, 66);
type = Stem;
},
{
place = (23, 80);
place = (23, 80);
type = Stem;
},
{
place = (432, 81);
place = (432, 81);
type = Stem;
}
);
layerId = m01;
shapes = (
{
closed = 1;
nodes = (
(126,530,o),
(23,380,o),
(23,212,cs),
(23,67,o),
(118,-14,o),
(241,-14,cs),
(417,-14,o),
(513,138,o),
(513,302,cs),
(513,443,o),
(421,530,o),
(296,530,cs)
);
},
{
closed = 1;
nodes = (
(390,464,o),
(432,388,o),
(432,302,cs),
(432,170,o),
(367,53,o),
(244,53,cs),
(150,53,o),
(103,122,o),
(103,213,cs),
(103,341,o),
(167,464,o),
(294,464,cs)
);
}
);
width = 536;
}
);
note = o;
unicode = 111;
},
{
glyphname = p;
kernLeft = p;
kernRight = thorn;
lastChange = "2023-04-04 19:51:15 +0000";
layers = (
{
hints = (
{
horizontal = 1;
place = (-166, 21);
target = up;
type = BottomGhost;
},
{
horizontal = 1;
place = (-15, 67);
place = (-15, 67);
type = Stem;
},
{
horizontal = 1;
place = (461, 68);
place = (461, 68);
type = Stem;
},
{
place = (440, 82);
place = (440, 82);
type = Stem;
},
{
horizontal = 1;
place = (461, 56);
place = (461, 56);
type = Stem;
}
);
layerId = m01;
shapes = (
{
closed = 1;
nodes = (
(-28,-166,l),
(52,-166,l),
(99,78,l),
(101,78,l),
(130,20,o),
(185,-15,o),
(261,-15,cs),
(437,-15,o),
(522,159,o),
(522,315,cs),
(522,443,o),
(453,529,o),
(340,529,cs),
(271,529,o),
(213,498,o),
(173,446,c),
(171,446,l),
(185,517,l),
(105,517,l)
);
},
{
closed = 1;
nodes = (
(410,461,o),
(440,390,o),
(440,310,cs),
(440,195,o),
(386,52,o),
(258,52,cs),
(166,52,o),
(124,120,o),
(125,208,cs),
(126,331,o),
(194,461,o),
(319,461,cs)
);
}
);
width = 547;
}
);
note = p;
unicode = 112;
},
{
glyphname = q;
kernLeft = d;
kernRight = q;
lastChange = "2023-04-04 19:51:17 +0000";
layers = (
{
hints = (
{
horizontal = 1;
place = (-166, 21);
target = up;
type = BottomGhost;
},
{
horizontal = 1;
place = (-15, 67);
place = (-15, 67);
type = Stem;
},
{
horizontal = 1;
place = (461, 68);
place = (461, 68);
type = Stem;
},
{
place = (23, 81);
place = (23, 81);
type = Stem;
},
{
horizontal = 1;
place = (517, -20);
target = down;
type = TopGhost;
}
);
layerId = m01;
shapes = (
{
closed = 1;
nodes = (
(462,517,l),
(446,436,l),
(444,436,l),
(414,496,o),
(363,529,o),
(291,529,cs),
(117,529,o),
(24,352,o),
(23,201,cs),
(22,63,o),
(102,-15,o),
(219,-15,cs),
(282,-15,o),
(332,12,o),
(371,56,c),
(373,56,l),
(329,-166,l),
(409,-166,l),
(542,517,l)
);
},
{
closed = 1;
nodes = (
(376,461,o),
(421,398,o),
(421,319,cs),
(421,191,o),
(362,52,o),
(230,52,cs),
(137,52,o),
(104,124,o),
(104,205,cs),
(104,314,o),
(165,461,o),
(288,461,cs)
);
}
);
width = 546;
}
);
note = q;
unicode = 113;
},
{
glyphname = r;
kernLeft = m;
kernRight = r;
lastChange = "2023-04-04 20:05:44 +0000";
layers = (
{
hints = (
{
horizontal = 1;
place = (0, 21);
target = up;
type = BottomGhost;
},
{
horizontal = 1;
place = (445, 72);
place = (445, 72);
type = Stem;
},
{
place = (4, 356);
place = (4, 356);
type = Stem;
},
{
horizontal = 1;
place = (445, 78);
place = (445, 78);
type = Stem;
}
);
layerId = m01;
shapes = (
{
closed = 1;
nodes = (
(4,0,l),
(84,0,l),
(136,273,ls),
(157,383,o),
(227,445,o),
(305,445,cs),
(321,445,o),
(331,444,o),
(345,440,c),
(360,517,l),
(351,521,o),
(343,523,o),
(318,523,cs),
(259,523,o),
(209,489,o),
(170,435,c),
(168,435,l),
(184,517,l),
(104,517,l)
);
}
);
width = 328;
}
);
note = r;
unicode = 114;
},
{
glyphname = s;
kernLeft = scaron;
kernRight = scaron;
lastChange = "2023-04-04 06:04:50 +0000";
layers = (
{
hints = (
{
horizontal = 1;
place = (-15, 66);
place = (-15, 66);
type = Stem;
},
{
horizontal = 1;
place = (466, 62);
place = (466, 62);
type = Stem;
},
{
place = (62, 75);
place = (62, 75);
type = Stem;
},
{
place = (336, 78);
place = (336, 78);
type = Stem;
}
);
layerId = m01;
shapes = (
{
closed = 1;
nodes = (
(432,482,o),
(345,528,o),
(241,528,cs),
(137,528,o),
(62,478,o),
(62,388,cs),
(62,299,o),
(132,269,o),
(217,236,cs),
(301,203,o),
(336,185,o),
(336,144,cs),
(336,71,o),
(274,51,o),
(219,51,cs),
(129,51,o),
(77,91,o),
(75,168,c),
(-2,168,l),
(-2,42,o),
(101,-15,o),
(213,-15,cs),
(319,-15,o),
(414,34,o),
(414,146,cs),
(414,235,o),
(347,265,o),
(256,301,cs),
(173,334,o),
(137,350,o),
(137,392,cs),
(137,450,o),
(188,466,o),
(241,466,cs),
(306,466,o),
(353,437,o),
(361,366,c),
(439,366,l)
);
}
);
width = 464;
}
);
note = s;
unicode = 115;
},
{
glyphname = t;
kernLeft = t;
kernRight = t;
lastChange = "2023-04-04 20:06:49 +0000";
layers = (
{
hints = (
{
horizontal = 1;
place = (-3, 69);
place = (-3, 69);
type = Stem;
},
{
horizontal = 1;
place = (452, 65);
place = (452, 65);
type = Stem;
},
{
place = (59, 265);
place = (59, 265);
type = Stem;
}
);
layerId = m01;
shapes = (
{
closed = 1;
nodes = (
(59,452,l),
(132,452,l),
(69,127,ls),
(52,41,o),
(93,-3,o),
(173,-3,cs),
(195,-3,o),
(215,0,o),
(229,5,c),
(243,75,l),
(231,71,o),
(214,66,o),
(194,66,cs),
(155,66,o),
(141,84,o),
(149,124,cs),
(212,452,l),
(311,452,l),
(324,517,l),
(225,517,l),
(257,680,l),
(177,680,l),
(145,517,l),
(72,517,l)
);
}
);
width = 297;
}
);
note = t;
unicode = 116;
},
{
glyphname = u;
kernLeft = u;
kernRight = u;
lastChange = "2023-04-04 06:07:44 +0000";
layers = (
{
hints = (
{
horizontal = 1;
place = (0, 21);
target = up;
type = BottomGhost;
},
{
horizontal = 1;
place = (517, -20);
target = down;
type = TopGhost;
},
{
place = (24, 79);
place = (24, 79);
type = Stem;
},
{
horizontal = 1;
place = (-12, 67);
place = (-12, 67);
type = Stem;
}
);
layerId = m01;
shapes = (
{
closed = 1;
nodes = (
(28,157,ls),
(8,52,o),
(56,-12,o),
(157,-12,cs),
(233,-12,o),
(289,22,o),
(331,72,c),
(333,72,l),
(320,0,l),
(400,0,l),
(500,517,l),
(420,517,l),
(364,228,ls),
(345,132,o),
(268,55,o),
(176,55,cs),
(113,55,o),
(93,87,o),
(107,158,cs),
(177,517,l),
(98,517,l)
);
}
);
width = 504;
}
);
note = u;
unicode = 117;
},
{
glyphname = v;
kernLeft = v;
kernRight = v;
lastChange = "2023-04-04 06:09:34 +0000";
layers = (
{
hints = (
{
horizontal = 1;
place = (0, 21);
target = up;
type = BottomGhost;
},
{
horizontal = 1;
place = (517, -20);
target = down;
type = TopGhost;
},
{
place = (49, 445);
place = (49, 445);
type = Stem;
},
{
horizontal = 1;
place = (0, 78);
place = (0, 78);
type = Stem;
}
);
layerId = m01;
shapes = (
{
closed = 1;
nodes = (
(132,0,l),
(221,0,l),
(494,517,l),
(409,517,l),
(193,78,l),
(191,78,l),
(133,517,l),
(49,517,l)
);
}
);
width = 449;
}
);
note = v;
unicode = 118;
},
{
glyphname = w;
kernLeft = w;
kernRight = w;
lastChange = "2023-04-04 06:10:45 +0000";
layers = (
{
hints = (
{
horizontal = 1;
place = (0, 86);
place = (0, 86);
type = Stem;
},
{
horizontal = 1;
place = (517, -20);
target = down;
type = TopGhost;
},
{
place = (52, 700);
place = (52, 700);
type = Stem;
},
{
horizontal = 1;
place = (423, 94);
place = (423, 94);
type = Stem;
}
);
layerId = m01;
shapes = (
{
closed = 1;
nodes = (
(115,0,l),
(198,0,l),
(380,423,l),
(382,423,l),
(416,0,l),
(498,0,l),
(752,517,l),
(668,517,l),
(472,86,l),
(470,86,l),
(439,517,l),
(356,517,l),
(173,86,l),
(171,86,l),
(136,517,l),
(52,517,l)
);
}
);
width = 708;
}
);
note = w;
unicode = 119;
},
{
glyphname = x;
kernLeft = x;
kernRight = x;
lastChange = "2023-04-04 06:13:52 +0000";
layers = (
{
hints = (
{
horizontal = 1;
place = (0, 21);
target = up;
type = BottomGhost;
},
{
horizontal = 1;
place = (517, -20);
target = down;
type = TopGhost;
},
{
place = (-49, 545);
place = (-49, 545);
type = Stem;
}
);
layerId = m01;
shapes = (
{
closed = 1;
nodes = (
(192,276,l),
(-49,0,l),
(47,0,l),
(226,221,l),
(228,221,l),
(327,0,l),
(417,0,l),
(284,272,l),
(496,517,l),
(402,517,l),
(249,327,l),
(247,327,l),
(168,517,l),
(79,517,l)
);
}
);
width = 475;
}
);
note = x;
unicode = 120;
},
{
glyphname = y;
kernLeft = yacute;
kernRight = yacute;
lastChange = "2023-04-04 06:16:59 +0000";
layers = (
{
hints = (
{
horizontal = 1;
place = (-171, 71);
place = (-171, 71);
type = Stem;
},
{
horizontal = 1;
place = (517, -20);
target = down;
type = TopGhost;
},
{
place = (-25, 527);
place = (-25, 527);
type = Stem;
},
{
horizontal = 1;
place = (-159, 21);
target = up;
type = BottomGhost;
}
);
layerId = m01;
shapes = (
{
closed = 1;
nodes = (
(159,16,l),
(148,-6,o),
(136,-27,o),
(125,-49,cs),
(105,-87,o),
(78,-100,o),
(45,-100,cs),
(18,-100,o),
(3,-94,o),
(-11,-89,c),
(-25,-159,l),
(-7,-167,o),
(17,-171,o),
(44,-171,cs),
(107,-171,o),
(158,-145,o),
(200,-64,cs),
(502,517,l),
(419,517,l),
(214,96,l),
(212,96,l),
(131,517,l),
(49,517,l)
);
}
);
width = 457;
}
);
note = y;
unicode = 121;
},
